<?xml version="1.0" standalone="no"?>
<!DOCTYPE svg PUBLIC "-//W3C//DTD SVG 20010904//EN"
 "http://www.w3.org/TR/2001/REC-SVG-20010904/DTD/svg10.dtd">
<svg version="1.0" xmlns="http://www.w3.org/2000/svg"
 width="971.000000pt" height="512.000000pt" viewBox="0 0 971.000000 512.000000"
 preserveAspectRatio="xMidYMid meet">
<metadata>
Created by potrace 1.16, written by Peter Selinger 2001-2019
</metadata>
<g transform="translate(0.000000,512.000000) scale(0.100000,-0.100000)"
fill="#000000" stroke="none">
<path d="M5440 5101 c0 -6 -6 -8 -14 -5 -10 4 -7 -17 12 -80 15 -46 30 -82 34
-80 4 3 5 -2 2 -11 -6 -15 -27 -17 -104 -14 -8 0 -71 3 -140 6 -217 9 -718 5
-910 -7 -473 -29 -926 -91 -1350 -186 -210 -47 -454 -114 -458 -125 -2 -5 -7
-7 -11 -4 -12 7 -121 -26 -121 -37 0 -5 -4 -7 -9 -4 -25 16 -661 -230 -661
-256 0 -5 -5 -6 -10 -3 -12 7 -269 -124 -408 -209 -305 -185 -559 -394 -731
-601 -36 -44 -76 -91 -88 -105 -13 -14 -23 -28 -23 -32 0 -4 -9 -12 -20 -18
-15 -8 -18 -7 -15 2 3 7 -8 53 -24 103 -23 70 -27 93 -18 104 10 12 9 12 -11
2 -18 -10 -21 -15 -12 -26 10 -12 8 -13 -9 -10 -15 3 -21 -1 -21 -15 0 -11 -9
-24 -20 -30 -11 -6 -18 -15 -15 -21 4 -5 -1 -9 -9 -9 -10 0 -13 -6 -9 -17 4
-11 3 -14 -5 -9 -7 4 -12 4 -13 -1 -3 -30 -10 -46 -27 -61 -16 -14 -48 -73
-57 -102 -8 -31 -18 -50 -25 -50 -4 0 -11 -12 -16 -27 -10 -36 -8 -32 -29 -78
-10 -22 -19 -47 -20 -55 -2 -8 -10 -34 -18 -57 -9 -24 -14 -43 -10 -43 3 0 1
-6 -4 -12 -6 -7 -13 -33 -17 -58 -4 -25 -10 -63 -14 -85 -15 -84 -6 -446 12
-495 3 -8 7 -26 10 -40 3 -14 11 -47 20 -74 8 -27 13 -53 10 -58 -3 -4 -1 -8
3 -8 9 0 49 -99 45 -112 -1 -5 3 -8 8 -8 5 0 9 -3 8 -7 -2 -12 44 -108 53
-111 5 -2 7 -8 3 -13 -3 -5 0 -9 7 -9 7 0 10 -3 6 -6 -3 -4 1 -13 9 -21 8 -8
11 -19 8 -25 -4 -6 -2 -8 3 -5 10 6 20 -6 21 -27 0 -5 4 -12 9 -15 4 -3 48
-59 97 -124 49 -65 112 -142 140 -171 28 -29 62 -67 75 -85 13 -17 29 -31 34
-31 9 0 32 -20 173 -152 23 -21 46 -38 51 -38 5 0 22 -14 38 -30 16 -17 34
-30 41 -30 7 0 19 -8 26 -17 7 -10 29 -26 50 -37 20 -10 52 -34 72 -52 20 -19
41 -32 45 -30 5 3 16 -3 26 -14 10 -11 23 -20 29 -20 6 0 34 -15 62 -32 28
-18 71 -44 97 -58 26 -13 47 -28 47 -32 0 -5 3 -7 7 -6 5 2 63 -26 130 -60 68
-34 125 -62 128 -62 3 0 33 -14 68 -32 34 -18 64 -33 67 -33 44 -12 60 -19 60
-26 0 -5 6 -9 14 -9 20 0 180 -62 187 -73 3 -5 8 -7 10 -6 5 5 203 -62 209
-71 3 -3 14 -7 26 -7 12 -1 64 -18 116 -37 53 -20 105 -36 116 -36 12 0 24 -5
27 -10 3 -6 19 -10 36 -10 16 0 37 -4 47 -9 9 -5 44 -15 77 -21 33 -7 71 -17
85 -23 14 -5 33 -9 43 -8 9 1 17 -2 17 -8 0 -6 10 -10 23 -9 19 1 96 -14 272
-54 28 -7 55 -13 60 -13 6 -1 12 -3 15 -5 3 -1 16 -4 30 -5 26 -2 260 -40 345
-56 28 -5 83 -12 123 -15 40 -3 85 -9 98 -15 14 -5 29 -7 32 -5 4 2 66 -3 137
-11 180 -20 255 -25 580 -38 232 -9 502 -8 695 1 80 4 174 9 210 10 60 3 150
10 260 20 25 2 80 8 122 14 42 6 80 9 85 8 4 -1 22 1 38 5 28 7 114 17 180 22
17 1 37 4 45 8 27 10 161 27 170 22 5 -3 12 0 15 6 4 6 18 8 30 5 13 -3 27 -1
31 5 3 6 15 9 25 6 10 -3 21 -1 24 4 4 5 16 8 28 8 12 0 40 4 62 10 22 5 58
13 80 16 56 8 80 12 80 15 0 3 47 10 67 11 10 0 20 5 23 10 4 5 11 7 16 3 5
-3 15 -1 22 4 7 6 28 13 47 16 54 9 73 13 101 24 15 6 30 8 33 5 3 -3 12 -1
19 5 8 7 17 9 20 5 4 -3 12 -1 19 4 11 9 61 24 93 28 6 1 17 4 25 8 40 18 235
75 242 71 4 -3 8 -1 8 5 0 9 56 26 63 19 2 -2 10 2 18 8 11 9 95 41 129 49 3
1 16 6 30 12 85 36 101 42 105 43 28 5 353 153 463 210 61 33 112 57 112 54 0
-3 6 0 13 6 6 6 81 53 164 105 637 390 1029 867 1140 1385 26 120 26 430 0
549 -70 322 -228 605 -491 879 -489 507 -1259 906 -2226 1153 -321 82 -765
162 -1070 194 -30 3 -73 8 -95 10 -93 10 -185 17 -250 20 -39 1 -80 5 -93 9
-13 4 -22 3 -22 -3z m-552 -657 c44 -31 43 -46 -14 -345 -29 -156 -56 -294
-59 -306 l-5 -23 288 0 c393 0 524 -19 688 -100 191 -94 290 -288 269 -529 -7
-84 -240 -1309 -257 -1355 -6 -15 -25 -37 -42 -47 -28 -17 -55 -19 -314 -19
-312 0 -345 5 -358 55 -4 18 35 240 110 629 146 751 146 749 27 775 -43 9
-520 17 -521 9 0 -2 -63 -322 -139 -712 -123 -632 -141 -712 -161 -728 -20
-16 -48 -18 -327 -18 -179 0 -312 4 -323 10 -41 22 -40 54 6 296 24 126 43
232 41 237 -1 4 -24 -21 -50 -57 -143 -194 -357 -351 -573 -419 -146 -46 -262
-58 -615 -64 l-325 -6 -62 -315 c-49 -251 -66 -320 -82 -337 -20 -19 -32 -20
-336 -20 l-316 0 -19 24 c-10 13 -19 36 -19 52 0 15 79 434 175 931 97 497
177 917 179 933 2 17 6 37 9 45 4 12 88 442 111 570 17 97 29 131 53 150 25
20 40 20 612 20 328 0 626 -5 676 -10 140 -16 251 -47 365 -102 92 -44 115
-61 195 -142 96 -97 139 -165 171 -271 10 -33 21 -63 24 -68 5 -6 121 563 126
618 1 11 4 27 7 35 3 8 29 134 57 280 28 146 55 277 61 291 6 15 20 31 32 37
14 7 132 11 317 11 256 1 299 -1 318 -15z m2687 -674 c144 -17 252 -47 365
-102 91 -44 116 -62 191 -137 154 -155 213 -312 211 -566 -3 -496 -286 -944
-712 -1126 -185 -79 -333 -99 -737 -99 -167 0 -303 -1 -303 -2 0 -2 -29 -147
-64 -322 -55 -276 -66 -322 -86 -338 -20 -17 -48 -18 -335 -18 l-314 0 -20 26
c-12 15 -21 33 -21 41 0 8 106 560 235 1227 129 666 237 1225 240 1241 3 17
11 57 19 90 25 103 -29 95 650 95 337 0 630 -5 681 -10z"/>
<path d="M4295 4368 c-2 -7 -112 -575 -245 -1263 -133 -687 -243 -1258 -246
-1267 -5 -17 13 -18 273 -18 l278 0 139 717 c76 395 141 724 144 731 4 11 64
13 306 10 l301 -3 57 -27 c69 -32 89 -66 95 -158 4 -53 -16 -171 -111 -658
-64 -326 -116 -597 -116 -603 0 -5 113 -9 280 -9 154 0 280 3 280 6 0 3 52
272 115 597 135 693 143 745 127 858 -29 202 -141 317 -365 374 -134 34 -283
45 -604 45 -156 0 -283 1 -283 3 0 1 29 152 65 335 36 183 65 335 65 337 0 3
-124 5 -275 5 -212 0 -277 -3 -280 -12z"/>
<path d="M1975 3688 c-2 -7 -113 -573 -245 -1258 -133 -685 -244 -1255 -247
-1267 l-5 -23 280 0 280 0 57 292 c31 161 61 314 67 341 l10 47 323 0 c523 0
696 36 921 191 316 219 494 568 494 969 0 411 -248 662 -702 710 -145 15
-1228 13 -1233 -2z m1066 -412 c136 -25 217 -75 261 -164 21 -42 23 -60 22
-177 -1 -105 -6 -148 -27 -226 -66 -251 -192 -393 -395 -448 -113 -30 -232
-41 -456 -41 l-198 0 5 23 c3 12 49 247 102 522 53 275 98 506 100 513 6 18
482 16 586 -2z"/>
<path d="M2520 3203 c0 -5 -38 -206 -85 -445 -47 -240 -85 -441 -85 -447 0
-14 239 -14 365 -1 328 35 464 171 521 520 26 158 1 276 -67 317 -78 48 -129
56 -396 61 -150 2 -253 0 -253 -5z"/>
<path d="M6325 3688 c-2 -7 -113 -573 -245 -1258 -133 -685 -244 -1255 -247
-1267 l-5 -23 280 0 280 0 57 292 c31 161 61 314 67 341 l10 47 323 0 c345 0
483 11 624 50 266 74 518 283 656 543 149 279 179 659 71 891 -100 216 -326
353 -636 386 -148 15 -1230 13 -1235 -2z m1066 -412 c136 -25 217 -75 261
-164 21 -42 23 -60 22 -177 -1 -105 -6 -148 -27 -226 -66 -251 -192 -393 -395
-448 -113 -30 -232 -41 -456 -41 l-198 0 5 23 c3 12 49 247 102 522 53 275 98
506 100 513 6 18 482 16 586 -2z"/>
<path d="M6870 3203 c0 -5 -38 -206 -85 -445 -47 -240 -85 -441 -85 -447 0
-14 239 -14 365 -1 302 32 435 147 507 437 30 119 32 282 4 333 -28 51 -63 78
-136 102 -58 19 -93 22 -317 26 -150 2 -253 0 -253 -5z"/>
</g>
</svg>
